<?xml version="1.0" standalone="no"?>
<!DOCTYPE svg PUBLIC "-//W3C//DTD SVG 20010904//EN"
 "http://www.w3.org/TR/2001/REC-SVG-20010904/DTD/svg10.dtd">
<svg version="1.0" xmlns="http://www.w3.org/2000/svg"
 width="279.000000pt" height="205.000000pt" viewBox="0 0 279.000000 205.000000"
 preserveAspectRatio="xMidYMid meet">
<metadata>
Created by potrace 1.10, written by Peter Selinger 2001-2011
</metadata>
<g transform="translate(0.000000,205.000000) scale(0.100000,-0.100000)"
fill="#000000" stroke="none">
<path d="M1356 2035 c-23 -17 -15 -45 13 -45 32 0 34 -19 6 -56 -33 -43 -72
-45 -67 -4 10 79 8 85 -21 88 -19 2 -44 -7 -77 -30 -27 -18 -50 -37 -50 -41 0
-5 5 -5 10 -2 17 10 11 -11 -10 -38 -22 -27 -26 -42 -10 -32 12 8 13 11 -5
-54 -8 -30 -12 -57 -10 -61 2 -3 -5 -40 -15 -80 -20 -76 -18 -98 4 -68 7 10
15 15 18 12 10 -9 109 50 120 71 6 11 19 28 29 38 20 19 26 43 9 32 -5 -3 -10
4 -11 17 -1 17 -4 14 -13 -14 -17 -55 -29 -59 -22 -8 5 44 5 44 -10 -10 -17
-61 -33 -87 -28 -43 4 26 3 26 -6 -4 -14 -43 -32 -53 -19 -11 5 18 9 40 8 48
-1 18 -4 9 -19 -49 -19 -72 -22 -39 -5 45 18 88 25 103 25 54 0 -42 5 -37 14
13 5 24 4 37 -2 33 -6 -3 -13 6 -17 21 -4 19 0 34 14 54 15 21 17 27 6 23 -22
-9 -18 13 4 26 30 16 46 13 31 -6 -8 -8 -9 -14 -4 -13 23 4 26 -2 8 -17 -10
-8 -14 -13 -8 -10 14 7 27 -21 14 -29 -6 -4 -10 -14 -9 -23 0 -14 2 -14 8 2 5
14 10 16 15 8 4 -7 12 -10 17 -7 5 4 9 2 9 -3 0 -6 8 -9 17 -8 12 0 19 -7 21
-21 2 -13 -2 -23 -8 -23 -7 0 -9 7 -6 16 5 14 4 15 -8 5 -11 -9 -15 -9 -19 1
-4 10 -6 10 -6 1 -1 -7 -5 -13 -11 -13 -5 0 -7 8 -3 18 5 14 3 13 -10 -3 -13
-15 -16 -16 -17 -5 0 13 -1 13 -10 0 -8 -12 -2 -16 33 -20 33 -4 42 -9 42 -24
0 -11 6 -21 14 -24 10 -3 12 1 9 16 -4 15 -2 19 9 15 12 -5 14 -18 10 -67 -3
-34 -9 -72 -13 -85 -6 -19 -4 -22 6 -16 10 6 12 4 7 -9 -4 -10 -7 -20 -7 -22
0 -2 -12 -4 -26 -4 -17 0 -28 -6 -31 -20 -3 -11 -11 -20 -18 -20 -24 0 -67
-42 -62 -61 3 -10 2 -18 -2 -17 -29 3 -61 -4 -61 -15 0 -13 -39 -37 -59 -37
-5 0 -11 8 -13 18 -4 16 4 21 46 32 28 8 58 13 66 11 11 -2 12 0 4 9 -9 9 -25
8 -68 -6 l-56 -18 -48 46 c-26 25 -62 55 -81 68 -43 30 -23 39 22 11 l34 -21
21 27 c23 29 17 57 -16 67 -23 8 -70 56 -54 56 7 0 12 5 12 11 0 7 -11 9 -27
5 -16 -3 -22 -3 -15 0 17 8 15 24 -3 24 -8 0 -15 4 -15 8 0 5 -25 3 -56 -3
-45 -9 -63 -18 -90 -49 -38 -43 -60 -106 -46 -133 25 -48 34 -94 22 -108 -13
-16 -2 -20 15 -7 13 9 19 66 7 58 -6 -3 -13 1 -16 10 -11 30 -6 53 16 68 36
25 44 18 15 -12 -15 -15 -27 -32 -27 -36 0 -5 9 2 19 15 11 13 21 22 24 19 14
-17 52 -169 46 -186 -8 -20 -13 -6 -10 28 1 9 -3 19 -9 23 -5 3 -10 1 -10 -4
0 -6 -4 -11 -10 -11 -5 0 -10 21 -11 48 0 38 -2 43 -9 24 -5 -12 -8 -28 -6
-35 3 -6 7 -24 10 -39 4 -16 12 -27 19 -25 7 1 12 -8 11 -21 -1 -28 17 -24 34
9 12 22 13 20 9 -26 -4 -56 -88 -245 -107 -245 -13 0 -12 4 21 98 18 50 20 67
11 87 -16 34 -53 41 -106 19 -40 -17 -44 -21 -41 -51 1 -18 -1 -30 -5 -28 -4
2 -16 -3 -26 -11 -18 -15 -18 -15 3 -11 22 5 22 4 7 -32 -9 -20 -18 -42 -21
-48 -3 -7 -11 -13 -19 -13 -8 0 -14 -7 -14 -16 0 -11 8 -14 32 -12 31 3 51 23
106 104 11 16 12 10 7 -37 -5 -44 -3 -60 10 -73 21 -21 27 -20 59 5 24 19 38
48 16 34 -6 -3 -7 1 -4 9 5 12 13 6 36 -25 30 -42 31 -72 2 -83 -13 -5 -15
-23 -13 -101 2 -64 -1 -99 -9 -107 -18 -18 -14 -43 9 -64 12 -10 28 -32 36
-49 21 -40 32 -46 72 -39 31 5 38 2 66 -32 l31 -37 76 18 c76 18 78 18 165 -3
112 -28 194 -28 306 0 87 21 89 21 165 3 l76 -18 31 37 c28 34 35 37 66 32 40
-7 51 -1 72 39 8 17 24 39 36 49 23 21 27 46 9 64 -8 8 -11 43 -9 107 2 78 0
96 -13 101 -29 11 -28 41 2 83 23 31 31 37 36 25 3 -8 2 -12 -4 -9 -22 14 -8
-15 16 -34 32 -25 38 -26 59 -5 13 13 15 29 10 73 -5 47 -4 53 7 37 55 -81 75
-101 106 -104 24 -2 32 1 32 12 0 9 -6 16 -14 16 -8 0 -16 6 -19 13 -3 6 -12
28 -21 48 -15 36 -15 37 7 32 21 -4 21 -4 3 11 -10 8 -22 13 -26 11 -4 -2 -6
10 -5 28 3 30 -1 34 -41 51 -53 22 -90 15 -106 -19 -9 -20 -7 -37 11 -87 33
-94 34 -98 21 -98 -19 0 -103 189 -107 245 -4 46 -3 48 9 26 17 -33 35 -37 34
-9 -1 13 4 22 11 21 7 -2 15 9 19 25 3 15 7 33 10 39 2 7 -1 23 -6 35 -7 19
-9 14 -9 -24 -1 -27 -5 -48 -11 -48 -5 0 -10 5 -10 11 0 5 -5 7 -10 4 -6 -4
-10 -14 -9 -23 3 -34 -2 -48 -10 -28 -5 12 1 48 16 93 13 41 23 81 23 91 1 13
6 11 25 -11 14 -15 25 -25 25 -21 0 5 -12 21 -27 36 -29 30 -21 37 15 12 22
-15 27 -38 16 -68 -3 -9 -10 -13 -16 -10 -12 8 -6 -49 7 -58 17 -13 28 -9 15
7 -12 14 -3 60 22 108 14 27 -8 90 -46 133 -27 31 -45 40 -90 49 -31 6 -56 8
-56 3 0 -4 -7 -8 -15 -8 -18 0 -20 -16 -2 -24 6 -3 0 -3 -15 0 -17 4 -28 2
-28 -5 0 -6 5 -11 12 -11 16 0 -31 -48 -54 -56 -33 -10 -39 -38 -16 -67 l21
-27 34 21 c45 28 65 19 22 -11 -19 -13 -55 -43 -81 -68 l-48 -46 -56 18 c-43
14 -59 15 -68 6 -8 -9 -7 -11 4 -9 8 2 38 -3 66 -11 42 -11 50 -16 46 -32 -2
-10 -8 -18 -13 -18 -20 0 -59 24 -59 37 0 11 -35 19 -64 14 -5 -1 -6 5 -3 13
6 14 -22 43 -69 73 -18 11 -17 12 6 14 14 1 31 1 39 0 7 -2 20 0 28 3 11 5 5
17 -25 53 -53 64 -71 109 -59 150 7 23 15 31 31 30 11 0 24 -6 28 -12 5 -6 8
-6 8 3 0 22 20 13 21 -10 1 -22 1 -22 8 2 7 21 10 17 20 -33 7 -32 15 -57 17
-54 3 2 0 24 -5 48 -13 53 -14 75 -4 65 10 -9 42 -159 37 -166 -3 -2 -7 6 -11
19 -4 17 -8 19 -14 10 -6 -10 -11 -7 -18 11 -8 20 -10 21 -10 6 -1 -29 -11
-14 -27 41 -10 35 -13 40 -11 16 2 -18 -1 -34 -7 -36 -19 -6 3 -36 48 -62 25
-15 53 -28 61 -29 8 -1 21 -8 27 -14 24 -24 25 -11 7 56 -11 37 -18 74 -17 82
4 30 -24 120 -35 114 -7 -3 -4 1 6 9 16 14 16 16 -3 40 -22 27 -26 42 -10 32
27 -17 4 14 -32 43 -31 24 -49 32 -72 30 -31 -3 -31 -4 -31 -58 0 -50 -2 -55
-24 -58 -22 -4 -23 -1 -17 32 4 20 2 44 -4 55 -7 14 -7 22 2 27 7 4 -7 13 -33
20 -55 17 -60 17 -83 -1z m-58 -82 c-3 -42 0 -49 20 -58 30 -13 28 -24 -3 -20
-34 3 -37 8 -38 47 0 62 3 78 14 78 6 0 9 -19 7 -47z m248 -19 c0 -31 -4 -54
-10 -55 -6 0 -23 -3 -38 -5 -16 -3 -28 0 -28 6 0 5 11 10 25 10 31 0 45 25 34
63 -5 16 -6 34 -3 39 11 18 19 -4 20 -58z m-106 18 c-6 -2 -10 -11 -10 -20 0
-15 2 -15 10 -2 5 8 10 11 10 5 0 -5 -5 -17 -10 -25 -8 -12 -10 -12 -10 -1 0
11 -3 11 -15 1 -10 -9 -15 -9 -15 -1 0 6 5 11 11 11 6 0 9 7 5 15 -3 8 -1 15
4 15 6 0 9 3 9 8 -3 19 2 25 11 12 6 -10 6 -16 0 -18z m171 -2 c26 -21 20 -26
-14 -9 -20 9 -20 9 -4 -4 24 -20 21 -29 -5 -23 -13 3 -17 3 -11 0 10 -4 9 -9
-3 -21 -8 -8 -12 -18 -9 -21 3 -4 10 0 14 7 7 11 10 11 14 0 4 -10 6 -10 6 2
1 9 8 20 17 23 13 5 15 1 9 -21 -6 -27 -6 -27 9 -8 15 19 15 18 5 -11 -13 -40
-46 -51 -60 -21 l-10 22 5 -22 c2 -13 0 -23 -5 -23 -5 0 -9 6 -10 13 0 9 -2 9
-6 -1 -7 -18 -23 -4 -23 21 0 16 3 18 9 9 10 -17 25 27 24 76 0 37 14 41 48
12z m-153 -83 c1 -23 6 -56 10 -72 4 -17 8 -56 7 -87 0 -32 3 -58 7 -58 5 0 8
10 9 23 0 16 5 10 17 -20 9 -24 22 -43 30 -43 21 0 5 -17 -22 -22 -25 -5 -44
16 -26 27 18 11 11 26 -7 17 -10 -5 -27 -6 -38 -1 -13 5 -15 8 -5 8 12 1 13 3
1 10 -8 5 -10 14 -6 21 5 8 4 11 -3 6 -6 -3 -13 6 -17 24 -4 16 -11 30 -16 30
-6 0 -5 -8 1 -20 8 -15 8 -20 -2 -20 -7 0 -6 -5 4 -12 9 -7 19 -32 23 -54 6
-40 5 -42 -19 -40 -18 1 -26 7 -26 19 0 9 5 17 10 17 22 0 21 31 -1 50 -13 10
-19 19 -12 20 13 0 12 67 -2 90 -6 9 -4 11 6 6 8 -4 4 1 -8 10 -16 11 -23 27
-23 50 0 39 8 45 60 46 22 0 40 4 40 9 0 5 2 9 3 9 2 0 4 -19 5 -43z m33 -64
c-8 -19 -10 -21 -7 -6 2 13 0 26 -5 29 -5 3 -9 13 -9 22 0 15 1 15 16 0 13
-13 14 -21 5 -45z m-327 -55 c-10 -51 -26 -81 -19 -39 3 18 5 42 5 52 0 11 5
19 11 19 7 0 8 -12 3 -32z m516 -24 c16 -76 6 -79 -13 -4 -8 33 -11 60 -7 60
5 0 14 -25 20 -56z m-815 27 c-3 -5 -1 -12 5 -16 5 -3 10 -1 10 4 0 6 8 3 18
-6 11 -11 15 -22 10 -29 -9 -13 0 -24 19 -24 8 0 11 4 8 10 -3 5 10 0 29 -13
19 -12 35 -28 36 -34 0 -7 5 -13 10 -13 6 0 10 -5 10 -11 0 -6 -7 -9 -15 -5
-9 3 -15 0 -15 -10 0 -13 -3 -13 -30 1 -16 8 -42 16 -57 16 -26 2 -25 2 7 9
l35 7 -30 2 c-17 0 -37 7 -44 14 -12 10 -13 8 -7 -8 6 -20 6 -20 -9 -1 -14 18
-15 18 -15 2 0 -10 12 -21 30 -27 17 -6 30 -14 30 -19 0 -4 17 -19 38 -33 69
-47 125 -105 119 -126 -3 -14 6 -25 35 -42 22 -13 51 -33 65 -44 l25 -21 -17
-62 c-11 -39 -25 -67 -37 -73 -27 -15 -35 -3 -14 20 28 31 37 87 17 106 -10 8
-23 15 -29 15 -7 0 -12 5 -12 10 0 6 -10 8 -24 4 -16 -4 -30 1 -42 14 -11 11
-30 25 -44 32 -17 9 -10 -1 19 -29 25 -24 40 -46 35 -49 -6 -4 -21 -36 -34
-71 l-23 -63 -20 23 c-16 20 -18 21 -11 4 20 -55 16 -79 -20 -122 -45 -51 -86
-138 -85 -178 0 -23 4 -17 15 25 13 50 52 117 104 178 16 19 23 21 39 12 16
-8 21 -22 23 -68 3 -50 5 -57 23 -54 11 1 49 3 85 3 53 2 60 3 35 10 -16 5
-54 6 -84 2 l-54 -6 7 35 c8 42 -7 88 -29 88 -24 0 -29 27 -11 65 14 30 22 35
50 35 42 0 49 -8 31 -34 -20 -28 -19 -50 1 -42 14 5 16 1 10 -24 -3 -16 -9
-43 -12 -60 -6 -25 -3 -30 20 -36 14 -3 43 -4 65 -2 42 4 41 4 83 -71 11 -20
35 -54 52 -76 38 -47 49 -72 36 -80 -6 -4 -10 -2 -10 2 0 5 -8 13 -18 19 -16
11 -18 9 -14 -20 5 -31 4 -31 -16 -13 -20 18 -20 18 -27 -3 -6 -19 -11 -20
-80 -15 -46 4 -81 2 -94 -5 -17 -8 -21 -8 -21 4 0 12 -11 10 -57 -8 -51 -20
-58 -26 -58 -49 1 -23 -4 -27 -26 -27 -20 0 -36 11 -59 40 -30 38 -30 40 -10
40 28 0 152 31 166 41 5 5 21 5 34 2 16 -4 21 -3 16 5 -4 7 -15 12 -24 12 -13
0 -18 8 -17 33 0 25 5 33 22 35 12 2 30 -1 41 -7 19 -10 52 2 39 16 -5 4 -12
2 -16 -6 -6 -10 -10 -9 -15 4 -3 9 -10 13 -16 10 -5 -3 -10 -1 -10 4 0 14 13
14 28 -1 9 -9 12 -9 12 1 0 7 6 11 15 7 8 -3 19 2 24 12 9 16 11 16 24 -2 8
-11 19 -16 25 -12 7 4 12 3 12 -3 0 -5 -8 -14 -17 -20 -15 -8 -16 -12 -4 -23
11 -10 14 -10 18 0 7 19 30 14 36 -9 7 -25 27 -16 27 12 0 12 -7 19 -19 19
-25 0 -37 18 -22 33 15 15 14 27 -4 27 -8 0 -15 7 -15 16 0 8 -4 12 -10 9 -5
-3 -34 -7 -62 -7 -39 -1 -58 -7 -70 -21 -14 -16 -22 -17 -45 -9 -33 11 -114
-15 -121 -39 -3 -8 -13 -21 -24 -30 -17 -13 -18 -20 -9 -37 15 -28 14 -42 -4
-42 -9 0 -18 12 -21 30 -4 17 -10 30 -15 30 -4 0 -7 36 -5 80 2 57 7 85 19 98
23 25 21 42 -8 82 -32 43 -31 57 5 140 17 38 30 82 30 99 0 16 -14 72 -31 123
-23 69 -30 104 -27 140 5 47 32 93 49 82 5 -3 9 1 9 9 0 10 -12 13 -42 10 -35
-2 -39 0 -25 8 10 6 27 9 38 6 10 -3 22 -1 25 4 3 5 7 9 10 9 3 0 3 -4 -1 -9z
m1107 -3 c10 2 26 -1 35 -7 14 -8 9 -10 -24 -8 -31 3 -43 0 -43 -10 0 -8 4
-12 9 -9 17 11 44 -35 49 -82 3 -36 -4 -71 -27 -140 -17 -51 -31 -107 -31
-123 0 -17 14 -61 30 -99 36 -83 37 -97 5 -140 -29 -40 -31 -57 -8 -82 12 -13
17 -41 19 -98 2 -44 -1 -80 -5 -80 -5 0 -11 -13 -14 -30 -4 -18 -13 -30 -22
-30 -18 0 -19 14 -4 42 9 17 8 24 -9 37 -11 9 -21 22 -24 30 -7 24 -88 50
-121 39 -23 -8 -31 -7 -45 9 -12 14 -31 20 -70 21 -28 0 -57 4 -62 7 -6 3 -10
-1 -10 -9 0 -9 -7 -16 -15 -16 -18 0 -19 -12 -4 -27 15 -15 3 -33 -22 -33 -20
0 -23 -8 -13 -34 5 -13 9 -14 21 -5 11 10 11 14 1 20 -9 6 -3 9 15 9 16 0 26
-4 22 -10 -3 -5 -2 -10 4 -10 20 0 23 22 5 35 -18 14 -18 14 4 15 13 0 22 6
22 15 0 8 5 15 11 15 6 0 8 -7 5 -16 -3 -8 -2 -12 3 -9 5 3 12 -3 16 -14 5
-16 14 -19 58 -18 51 2 52 2 50 -27 -2 -26 -1 -27 11 -11 9 13 15 15 20 7 10
-17 39 -15 33 1 -3 7 4 19 15 26 19 12 20 11 14 -13 -4 -15 -2 -26 4 -26 5 0
10 -5 10 -10 0 -6 -13 -8 -32 -5 -17 3 -44 3 -60 -1 -27 -5 -28 -7 -11 -18 20
-14 141 -46 173 -46 19 0 19 -3 -11 -40 -23 -28 -40 -40 -59 -40 -21 0 -26 4
-25 27 0 23 -7 29 -57 49 -47 18 -58 20 -58 8 0 -11 -4 -12 -20 -4 -10 5 -51
8 -90 6 -61 -4 -73 -2 -83 14 -11 18 -12 18 -31 2 -18 -16 -19 -16 -14 14 4
29 2 31 -14 20 -10 -6 -18 -13 -18 -17 0 -3 -7 -6 -15 -6 -23 0 -19 8 40 82
30 38 55 73 55 78 0 4 10 22 23 40 19 28 27 32 61 29 22 -2 50 -1 64 3 21 5
23 10 18 35 -3 17 -9 44 -12 60 -6 25 -4 29 10 24 20 -8 21 14 1 42 -18 26
-11 34 31 34 28 0 36 -5 50 -35 18 -38 13 -65 -11 -65 -22 0 -37 -46 -29 -88
l7 -35 -54 6 c-30 4 -68 3 -84 -2 -25 -7 -18 -8 35 -10 36 0 74 -2 85 -3 18
-3 20 4 23 54 2 46 7 60 23 68 16 9 23 7 39 -12 52 -61 91 -128 104 -178 11
-42 15 -48 15 -25 1 40 -40 127 -85 178 -36 43 -40 69 -19 122 7 16 5 16 -12
-4 l-19 -24 -24 64 c-13 35 -28 67 -34 71 -5 3 10 25 35 49 29 28 36 38 19 29
-14 -7 -33 -21 -44 -32 -12 -13 -26 -18 -42 -14 -14 4 -24 2 -24 -4 0 -5 -5
-10 -12 -10 -6 0 -19 -7 -29 -15 -20 -19 -11 -75 17 -106 21 -23 13 -35 -14
-20 -12 6 -26 34 -37 73 l-17 62 25 21 c14 11 43 31 65 44 29 17 38 28 35 42
-6 21 50 79 120 126 20 14 37 29 37 33 0 5 14 13 30 19 18 6 30 17 30 27 0 16
-1 16 -15 -2 -15 -19 -15 -19 -9 1 6 16 5 18 -7 8 -7 -7 -26 -13 -42 -13 -15
0 -26 -4 -22 -10 3 -5 -8 -16 -25 -25 -26 -14 -30 -14 -30 -1 0 10 -6 13 -15
10 -8 -4 -15 -1 -15 5 0 6 5 11 10 11 6 0 10 6 10 13 1 6 17 22 36 34 19 13
32 18 29 13 -3 -6 0 -10 8 -10 19 0 28 11 19 24 -5 7 -1 18 10 29 10 9 18 12
18 6 0 -5 5 -7 10 -4 6 4 7 11 4 17 -5 7 -2 8 7 2 8 -5 22 -7 31 -6z m-1158
-33 c-4 -8 -14 -15 -23 -15 -9 0 -23 -5 -31 -10 -11 -8 -8 -9 12 -4 23 5 26 3
21 -15 -3 -12 -9 -21 -14 -21 -5 0 -8 -6 -6 -12 1 -7 -8 -14 -21 -16 -12 -2
-20 -7 -17 -12 3 -5 1 -11 -3 -14 -5 -3 -9 9 -8 26 1 18 8 33 16 35 13 4 13 3
0 -6 -8 -6 -10 -11 -4 -11 5 0 19 7 30 15 18 14 18 14 -10 15 l-29 0 22 24
c13 14 33 27 45 29 11 2 22 5 23 6 1 0 0 -6 -3 -14z m1237 -21 l22 -24 -29 0
c-28 -1 -28 -1 -10 -15 11 -8 25 -15 30 -15 6 0 4 5 -4 11 -13 9 -13 10 0 6 8
-2 15 -17 16 -35 1 -17 -3 -29 -8 -26 -4 3 -6 9 -3 14 3 5 -5 10 -17 12 -13 2
-22 9 -20 16 1 6 -2 12 -7 12 -5 0 -11 9 -14 21 -5 18 -2 20 21 15 20 -5 23
-4 12 4 -8 5 -22 10 -31 10 -9 0 -19 6 -22 13 -8 22 38 8 64 -19z m-572 -131
c2 -2 -16 -3 -40 -3 -42 0 -43 1 -19 14 18 9 29 10 40 2 8 -6 17 -12 19 -13z
m-99 -24 c8 -13 8 -24 2 -32 -8 -9 0 -12 30 -13 35 0 40 3 45 28 4 22 10 27
30 26 36 -3 49 -24 29 -46 -22 -25 -8 -36 18 -15 21 18 21 18 3 -4 -18 -20
-26 -21 -156 -19 -76 2 -143 6 -149 10 -19 11 -14 29 13 49 24 17 25 17 25 -2
0 -11 5 -23 10 -26 6 -4 7 -12 4 -18 -5 -8 -3 -8 7 1 7 6 23 12 35 12 27 0 40
16 19 24 -18 7 -20 32 -2 39 21 9 26 7 37 -14z m-118 -118 c13 -16 39 -36 58
-46 19 -10 45 -27 58 -38 l22 -20 23 20 c12 11 38 28 57 38 19 10 45 30 58 46
19 23 31 29 63 29 35 0 39 -2 39 -26 0 -33 -70 -106 -122 -127 -68 -28 -78
-58 -73 -231 1 -83 1 -168 -2 -189 -7 -47 -34 -65 -66 -44 -20 13 -21 22 -22
210 -1 219 -3 224 -75 254 -50 22 -120 95 -120 127 0 24 4 26 39 26 32 0 44
-6 63 -29z m-112 -16 c0 -28 -3 -30 -32 -14 -21 11 -21 12 -3 25 27 20 35 17
35 -11z m305 19 c13 -5 10 -10 -15 -25 -40 -25 -53 -24 -87 6 l-28 24 57 1
c31 0 64 -3 73 -6z m230 -8 c18 -13 18 -14 -3 -25 -29 -16 -32 -14 -32 14 0
28 8 31 35 11z m-935 -96 c11 -11 18 -25 16 -32 -2 -7 -14 -45 -27 -85 -25
-76 -21 -95 13 -74 17 10 19 10 16 -1 -6 -18 -54 -22 -61 -5 -3 7 -1 33 3 58
7 34 6 47 -5 55 -8 6 -12 14 -8 18 9 9 -28 3 -44 -7 -7 -5 -13 -13 -13 -20 0
-6 6 -3 13 8 10 12 16 14 21 7 4 -7 2 -12 -4 -12 -6 0 -8 -4 -5 -10 3 -5 2
-10 -3 -10 -5 0 -9 -6 -9 -13 0 -23 -36 -68 -49 -63 -8 3 -14 1 -14 -4 0 -6
-8 -10 -17 -10 -15 0 -14 2 4 15 12 8 27 32 34 53 6 20 19 51 27 67 9 17 16
35 17 40 0 6 16 13 35 16 35 6 35 6 5 8 -26 2 -27 4 -10 11 31 13 43 12 65
-10z m373 3 c13 -7 8 -70 -7 -82 -10 -8 -16 -9 -21 -1 -3 5 -22 10 -41 10
l-35 0 16 30 c8 16 15 36 15 45 0 13 6 15 33 10 17 -4 35 -9 40 -12z m627 2
c0 -9 7 -29 15 -45 l16 -30 -34 0 c-18 0 -38 -5 -43 -10 -17 -17 -36 14 -32
51 2 26 9 35 28 40 40 11 50 10 50 -6z m365 5 c17 -7 16 -9 -10 -11 -30 -2
-30 -2 5 -8 19 -3 35 -10 35 -16 1 -5 8 -23 17 -40 8 -16 21 -47 27 -67 7 -21
22 -45 34 -53 18 -13 19 -15 4 -15 -9 0 -17 4 -17 10 0 5 -6 7 -14 4 -13 -5
-49 40 -49 63 0 7 -4 13 -9 13 -5 0 -6 5 -3 10 3 6 1 10 -5 10 -6 0 -8 5 -4
12 5 7 11 5 21 -7 7 -11 13 -14 13 -8 0 7 -6 15 -12 20 -17 10 -54 16 -45 7 4
-4 0 -12 -8 -18 -11 -8 -12 -21 -5 -55 4 -25 6 -51 3 -58 -7 -17 -55 -13 -61
5 -3 11 -1 11 16 1 34 -21 38 -2 13 74 -13 40 -25 78 -27 85 -4 15 31 52 49
51 6 0 21 -4 32 -9z m-844 -72 c22 -12 39 -29 40 -37 5 -67 6 -311 1 -311 -14
0 -42 35 -42 54 0 12 -10 39 -21 61 -51 95 -69 178 -49 229 12 32 21 32 71 4z
m333 -21 c12 -46 -2 -105 -45 -195 -16 -34 -27 -67 -24 -72 3 -4 -5 -21 -19
-36 l-24 -28 -5 39 c-9 67 -6 257 4 277 13 24 69 59 89 55 8 -1 19 -19 24 -40z
m-414 -181 c0 -7 -99 -2 -105 6 -1 2 3 29 8 60 8 41 17 59 31 66 18 8 22 2 43
-57 12 -36 22 -70 23 -75z m517 66 c5 -31 9 -58 8 -60 -1 -1 -26 -5 -55 -9
-42 -5 -51 -3 -48 8 2 8 12 42 23 75 18 56 21 61 40 52 15 -7 24 -25 32 -66z
m-710 -213 c-15 -11 -24 -26 -20 -32 4 -6 0 -8 -10 -4 -10 3 -17 2 -17 -3 0
-14 27 -13 36 1 4 8 9 8 17 0 6 -6 9 -12 6 -15 -10 -9 -99 -14 -99 -5 0 5 5 9
10 9 6 0 8 11 4 28 -5 21 -4 25 6 15 9 -9 20 -7 44 8 41 25 58 24 23 -2z m43
-148 c0 -14 -10 -20 -41 -25 -23 -4 -44 -4 -47 -2 -4 4 62 39 86 45 1 1 2 -7
2 -18z m570 0 c41 -5 84 -12 95 -15 11 -3 48 -13 82 -22 l63 -17 -28 -33 c-32
-38 -35 -39 -127 -19 -103 22 -480 21 -596 -1 l-87 -17 -30 34 -31 34 32 8
c18 5 50 15 72 23 22 8 87 19 145 25 58 6 107 13 110 16 6 7 199 -4 300 -16z
m235 -22 c11 -11 -9 -12 -54 -3 -21 5 -31 12 -31 25 0 17 2 17 38 3 20 -9 41
-20 47 -25z"/>
<path d="M1119 869 c-7 -14 -14 -18 -18 -10 -5 8 -12 7 -25 -2 -17 -13 -16
-14 10 -14 16 0 42 -3 57 -7 22 -5 26 -3 24 11 -7 45 -30 55 -48 22z"/>
<path d="M1650 880 c0 -5 -6 -10 -14 -10 -8 0 -18 -4 -21 -10 -3 -6 1 -7 10
-4 11 5 14 2 9 -10 -6 -14 -2 -16 22 -10 16 4 42 7 58 7 26 0 27 1 10 14 -13
9 -20 10 -25 2 -4 -8 -11 -4 -18 10 -12 22 -31 29 -31 11z"/>
<path d="M1285 737 c-22 -13 -27 -38 -8 -44 7 -3 9 3 6 16 -3 12 -1 21 6 21 6
0 11 -8 12 -17 1 -12 4 -10 9 7 l8 25 2 -25 c1 -14 4 -19 7 -12 4 10 8 9 18
-4 10 -15 11 -12 7 15 -3 23 -7 29 -13 20 -6 -10 -9 -11 -9 -1 0 15 -19 15
-45 -1z"/>
<path d="M1370 723 c0 -22 2 -25 10 -13 5 8 10 10 10 4 0 -7 15 -12 34 -12 28
0 33 3 29 19 -3 10 0 19 6 19 6 0 12 -12 12 -27 l1 -28 7 30 c8 35 -15 48 -35
20 -11 -15 -13 -15 -17 2 -4 14 -5 14 -6 -4 0 -13 -5 -23 -10 -23 -6 0 -8 9
-6 20 3 14 -2 20 -16 20 -14 0 -19 -7 -19 -27z"/>
<path d="M1200 708 c0 -30 1 -31 16 -16 9 9 14 24 11 32 -11 27 -27 17 -27
-16z"/>
<path d="M1600 724 c0 -8 5 -12 10 -9 6 3 10 -3 10 -14 0 -12 6 -21 13 -22 19
-1 51 -6 67 -10 10 -3 16 5 18 24 3 24 0 27 -27 27 -38 0 -41 0 -68 11 -18 7
-23 5 -23 -7z"/>
<path d="M1173 713 c3 -13 1 -23 -4 -23 -5 0 -9 8 -9 18 0 14 -2 15 -10 2 -5
-8 -9 -22 -9 -30 0 -9 2 -11 5 -3 3 7 11 10 19 7 19 -8 28 13 15 33 -10 16
-11 15 -7 -4z"/>
<path d="M1091 688 l1 -33 8 30 c6 24 8 26 9 8 1 -31 21 -29 21 2 0 18 -5 25
-20 25 -16 0 -20 -6 -19 -32z"/>
<path d="M1067 693 c6 -16 5 -16 -10 -4 -10 8 -20 11 -24 7 -7 -6 25 -35 40
-36 4 0 7 11 7 25 0 14 -4 25 -10 25 -5 0 -6 -8 -3 -17z"/>
<path d="M1728 685 c-3 -14 -1 -25 6 -26 6 0 21 -2 33 -5 19 -3 22 0 21 21 -3
30 -14 33 -23 5 -7 -23 -25 -17 -25 8 0 15 2 15 11 2 9 -12 10 -12 7 -1 -7 25
-25 23 -30 -4z"/>
<path d="M1541 1771 c-1 -24 -1 -24 -16 -5 -8 10 -15 14 -15 8 0 -17 37 -60
45 -53 3 4 2 22 -4 40 -8 29 -9 30 -10 10z"/>
</g>
</svg>
